<svg width="1200" height="700" viewBox="0 0 1200 700" fill="none" xmlns="http://www.w3.org/2000/svg">
<rect width="1200" height="700" fill="#14532D"/>
<rect width="1200" height="700" fill="url(#paint0_linear_4_2)"/>
<circle cx="915" cy="130" r="150" fill="#FEF3C7" fill-opacity="0.22"/>
<circle cx="973" cy="138" r="90" fill="#FEFCE8" fill-opacity="0.3"/>
<path d="M0 490C122 459 220 432 327 445C434 458 517 536 627 549C737 562 819 515 925 502C1031 489 1117 530 1200 568V700H0V490Z" fill="#166534" fill-opacity="0.62"/>
<path d="M0 566C121 550 222 531 332 543C442 555 533 614 645 626C757 638 850 606 965 598C1080 590 1145 614 1200 638V700H0V566Z" fill="#052E16" fill-opacity="0.82"/>
<rect x="116" y="125" width="242" height="78" rx="24" fill="white" fill-opacity="0.14"/>
<rect x="147" y="152" width="128" height="10" rx="5" fill="white" fill-opacity="0.88"/>
<rect x="147" y="178" width="173" height="10" rx="5" fill="white" fill-opacity="0.56"/>
<path d="M161 589C234 509 295 472 361 472C427 472 471 513 523 513C575 513 615 466 677 466C739 466 785 530 842 530C899 530 954 451 1038 451" stroke="white" stroke-width="12" stroke-linecap="round" stroke-opacity="0.9"/>
<defs>
<linearGradient id="paint0_linear_4_2" x1="121" y1="37" x2="1089" y2="662" gradientUnits="userSpaceOnUse">
<stop stop-color="#22C55E"/>
<stop offset="0.45" stop-color="#14B8A6"/>
<stop offset="1" stop-color="#0F172A"/>
</linearGradient>
</defs>
</svg>
