<svg width="1200" height="700" viewBox="0 0 1200 700" fill="none" xmlns="http://www.w3.org/2000/svg">
<rect width="1200" height="700" fill="#3F1D7A"/>
<rect width="1200" height="700" fill="url(#paint0_linear_3_2)"/>
<circle cx="194" cy="136" r="148" fill="#FDF2F8" fill-opacity="0.16"/>
<circle cx="1020" cy="536" r="238" fill="#FB7185" fill-opacity="0.16"/>
<path d="M0 496C99 461 184 447 282 458C380 469 465 532 573 546C681 560 787 525 896 512C1005 499 1108 518 1200 563V700H0V496Z" fill="#581C87" fill-opacity="0.5"/>
<path d="M0 574C111 553 205 535 311 546C417 557 511 621 624 633C737 645 836 604 949 598C1062 592 1139 617 1200 640V700H0V574Z" fill="#111827" fill-opacity="0.78"/>
<rect x="834" y="122" width="252" height="90" rx="28" fill="white" fill-opacity="0.14"/>
<rect x="868" y="151" width="108" height="10" rx="5" fill="white" fill-opacity="0.88"/>
<rect x="868" y="178" width="170" height="10" rx="5" fill="white" fill-opacity="0.52"/>
<path d="M128 575C190 499 239 462 310 462C381 462 427 509 481 509C535 509 569 473 610 473C651 473 694 511 748 511C802 511 845 448 925 448C1005 448 1058 514 1120 575" stroke="white" stroke-width="12" stroke-linecap="round" stroke-opacity="0.88"/>
<defs>
<linearGradient id="paint0_linear_3_2" x1="45" y1="32" x2="1137" y2="665" gradientUnits="userSpaceOnUse">
<stop stop-color="#A855F7"/>
<stop offset="0.48" stop-color="#EC4899"/>
<stop offset="1" stop-color="#7C2D12"/>
</linearGradient>
</defs>
</svg>
